# xmcd
#
# Track frame offsets:
#	150
#	30935
#	45379
#	70415
#	86342
#	112558
#	134970
#	149381
#	165942
#	189568
#	204396
#	226473
#	242252
#	258025
#	275484
#	298855
#	315076
#	334826
#	350184
#
# Disc length: 4878 seconds
# Revision: 0
# Processed by: cddbd v1.5.2PL0 Copyright (c) Steve Scherf et al.
# Submitted via: dBpowerAMP V12.0
#
DISCID=09130c13
DTITLE=Various Artist - Gnadenlos Sommer Folge8 CD1
DYEAR=2004
DGENRE=Discofox
TTITLE0=Tommy Fischer - Süchtig nach dir (Remix)
TTITLE1=Sandy Wagner - Schau' mir nicht so auf den Po (Rhythmus der Nacht Dj Mix)
TTITLE2=Oliver Frank - Nochmal mit dir (Immer-wieder-Mix)
TTITLE3=Tommy Fischer - Das Feuer dieser Nacht (Single Version)
TTITLE4=Oliver Lukas - Verrückt nach deiner Liebe (Maxi Remix)
TTITLE5=Marco Kloss - Du hast gewärmt wie alter Whiskey (Gnadenlos Sommer Maxi Version
TTITLE6=Michael Larsen - Es war nur der Wind (Rhythmus der Nacht Dj Mix)
TTITLE7=Michael Micheiloff - Himbeereis zum Frühstück (Dance Version)
TTITLE8=Torsten Krämer - Ich hab' geträumt von dir (Late-Night-Mix)
TTITLE9=Oliver Lukas - Julie (Radio Mix)
TTITLE10=Peter Steinbach - Amors Pfeil (Rhythmus der Nacht Club Mix)
TTITLE11=Fantasy - Du bist alles (Dance-Version)
TTITLE12=Matthias Carras - Julie (Du bist der Wahnsinn) (Wahnsinns-Dj-Mix)
TTITLE13=Michael Wendler - Unsterblich (Gnadenlos Sommer Maxi Mix)
TTITLE14=Jeannine - Tanz mit mir (Timewarp Maxi Version)
TTITLE15=Frank Cordes - Julia sagt
TTITLE16=Mike Bauhaus - Endstation Sehnsucht (XXL Version)
TTITLE17=Joyo - Please don't cry (Dance)
TTITLE18=Oliver Frank - Stark geboren-schwach geworden
EXTD=
EXTT0=
EXTT1=
EXTT2=
EXTT3=
EXTT4=
EXTT5=
EXTT6=
EXTT7=
EXTT8=
EXTT9=
EXTT10=
EXTT11=
EXTT12=
EXTT13=
EXTT14=
EXTT15=
EXTT16=
EXTT17=
EXTT18=
PLAYORDER=
